
<svg id="73901637-4ddc-4ae9-a17c-250e30c27fd0" data-name="Ebene 1" xmlns="http://www.w3.org/2000/svg" xmlns:xlink="http://www.w3.org/1999/xlink" viewBox="0 0 484.13 187.72"><defs><clipPath id="9544956f-365f-4958-88e0-3a070cf4835c" transform="translate(-23.79 -35.26)"><rect x="23.79" y="35.27" width="484.12" height="187.72" style="fill:none"/></clipPath></defs><title>payback-logo</title><g style="clip-path:url(#9544956f-365f-4958-88e0-3a070cf4835c)"><path d="M55.9,223a32.14,32.14,0,0,1-32.11-32.11V67.37A32.15,32.15,0,0,1,55.9,35.26h419.9a32.16,32.16,0,0,1,32.12,32.11v123.5A32.15,32.15,0,0,1,475.81,223Z" transform="translate(-23.79 -35.26)" style="fill:#fff"/><rect x="11.52" y="11.53" width="461.08" height="164.66" rx="20.58" ry="20.58" style="fill:#1d4b9b"/><path d="M365.48,71.89a16.47,16.47,0,1,0,16.47,16.47,16.48,16.48,0,0,0-16.47-16.47m0,29.65a13.17,13.17,0,1,1,13.18-13.18,13.17,13.17,0,0,1-13.18,13.18" transform="translate(-23.79 -35.26)" style="fill:#fff"/><path d="M406.24,71.89A16.47,16.47,0,1,0,422.7,88.36a16.48,16.48,0,0,0-16.47-16.47m0,29.65a13.17,13.17,0,1,1,13.18-13.18,13.17,13.17,0,0,1-13.18,13.18" transform="translate(-23.79 -35.26)" style="fill:#fff"/><path d="M447,71.9a16.47,16.47,0,1,0,16.47,16.47A16.46,16.46,0,0,0,447,71.9" transform="translate(-23.79 -35.26)" style="fill:#fff"/><path d="M365.48,153.4a16.47,16.47,0,1,0,16.47,16.47,16.48,16.48,0,0,0-16.47-16.47m0,29.65a13.17,13.17,0,1,1,13.18-13.18A13.17,13.17,0,0,1,365.48,183" transform="translate(-23.79 -35.26)" style="fill:#fff"/><path d="M406.24,153.4a16.47,16.47,0,1,0,16.47,16.47,16.48,16.48,0,0,0-16.47-16.47m0,29.65a13.17,13.17,0,1,1,13.18-13.18A13.18,13.18,0,0,1,406.24,183" transform="translate(-23.79 -35.26)" style="fill:#fff"/><path d="M447,153.41a16.47,16.47,0,1,0,16.47,16.46A16.46,16.46,0,0,0,447,153.41" transform="translate(-23.79 -35.26)" style="fill:#fff"/><path d="M365.48,112.64a16.47,16.47,0,1,0,16.47,16.47,16.48,16.48,0,0,0-16.47-16.47m0,29.65a13.17,13.17,0,1,1,13.18-13.18,13.17,13.17,0,0,1-13.18,13.18" transform="translate(-23.79 -35.26)" style="fill:#fff"/><path d="M406.24,112.65a16.47,16.47,0,1,0,16.47,16.46,16.47,16.47,0,0,0-16.47-16.46" transform="translate(-23.79 -35.26)" style="fill:#fff"/><path d="M447,112.65a16.47,16.47,0,1,0,16.47,16.46A16.46,16.46,0,0,0,447,112.65" transform="translate(-23.79 -35.26)" style="fill:#fff"/><path d="M74.76,92.88a11.53,11.53,0,1,0,11.53,11.53A11.53,11.53,0,0,0,74.76,92.88m0,19.36a7.83,7.83,0,1,1,7.83-7.82,7.82,7.82,0,0,1-7.83,7.82" transform="translate(-23.79 -35.26)" style="fill:#fff"/><path d="M123.32,105.5c0-8.54-5.56-11.73-13.93-11.73H94v35.4h9.75V117.7h5c8.58,0,14.6-3.19,14.6-12.2m-9.61.14c0,2.81-1.34,4.25-4.72,4.25h-5.47v-8.33h5.63c3.31,0,4.55,1.65,4.55,4.08" transform="translate(-23.79 -35.26)" style="fill:#fff;fill-rule:evenodd"/><path d="M158.52,129.16l-13-35.39h-10l-13,35.39h9.79l1.94-7h12.35l1.94,7Zm-13.3-13.45h-9.44l1.06-2.78a99.29,99.29,0,0,0,3.66-10.6,108.16,108.16,0,0,0,3.66,10.6Z" transform="translate(-23.79 -35.26)" style="fill:#fff;fill-rule:evenodd"/><path d="M179.83,93.77l-2.76,5.36a71.56,71.56,0,0,0-4.08,9.14l-.06-.14a73.41,73.41,0,0,0-4-9l-2.76-5.36H154.72l13.22,22.36v13h10V116l13.22-22.21Z" transform="translate(-23.79 -35.26)" style="fill:#fff"/><path d="M226,117.74a7.82,7.82,0,0,0-5.1-7.83c2.39-1.37,4.28-3.08,4.28-6.93,0-5.92-3.62-9.21-12.51-9.21H195.43v35.4h17.15c9,0,13.41-4.2,13.41-11.43m-10-13.45c0,1.84-.9,3.06-3.43,3.06H204.4v-6.12h8.19c2.58,0,3.43,1.34,3.43,3.06m.86,13.65c0,2.22-1.23,3.85-3.94,3.85h-8.59v-7.57H213c2.58,0,3.87,1.44,3.87,3.72" transform="translate(-23.79 -35.26)" style="fill:#fff;fill-rule:evenodd"/><path d="M264.4,129.16l-13-35.39h-10l-13,35.39h9.8l1.93-7h12.36l1.94,7Zm-13.29-13.45h-9.44l1.06-2.78a105.31,105.31,0,0,0,3.67-10.6,109.73,109.73,0,0,0,3.65,10.6Z" transform="translate(-23.79 -35.26)" style="fill:#fff;fill-rule:evenodd"/><path d="M297.56,120.57l-8.37-4.4c-2,3.33-3.27,5-6.39,5-4.29,0-6-4.3-6-9.71,0-5.63,1.78-9.71,5.93-9.71,3.27,0,4.49,2.07,5.77,5.36l9-3.49C295,97,291.54,93.21,282.76,93.21c-9.6,0-16.33,6.88-16.33,18.26,0,10.46,5.66,18.24,16.29,18.24,8.48,0,12.45-4.49,14.85-9.14" transform="translate(-23.79 -35.26)" style="fill:#fff"/><path d="M335.71,129.17l-12-22.91,10.77-12.49H323.4l-3.14,3.59c-2.44,2.79-5.72,6.7-7.4,9.05,0,.08-.12.17-.17.23.11-2.58.16-5.75.16-8.72V93.77H302.75v35.4h10.11V118.5l3.79-4.14.24-.26,8.2,15.06Z" transform="translate(-23.79 -35.26)" style="fill:#fff"/></g></svg>