<svg id="real-logo-2c" data-name="real-logo-2c" xmlns="http://www.w3.org/2000/svg" viewBox="0 0 130 77"><title>real-logo-2c</title><path d="M4.91,70.39a12.54,12.54,0,0,0-1.37.15c1-1.72,1.9-3.4,2.67-4.56a22.11,22.11,0,0,1,3.93-.52c.23,0,.27-.1.21-.25a1.34,1.34,0,0,0-1.47-.95,45.23,45.23,0,0,1-4.82.48c-.19,0-.25.06-.21.23a1.38,1.38,0,0,0,.81,1A52.2,52.2,0,0,0,.22,74.45a1.13,1.13,0,0,0,0,1.1,4.39,4.39,0,0,0,.4.72c.23.29.45.29.81.19a20.72,20.72,0,0,1,4.28-.77c.23,0,.25-.12.19-.29-.21-.58-.69-.89-1.64-.85a14.17,14.17,0,0,0-3,.59c.41-.9.93-2,1.49-3a16.69,16.69,0,0,1,3.58-.54c.25,0,.25-.12.19-.29C6.31,70.66,5.88,70.35,4.91,70.39Z" style="fill:#ba0c2f"/><path d="M10,68.24c.29.5.83.56,1.08.29a1.16,1.16,0,0,0,.14-1.29c-.26-.53-.82-.76-1.13-.43A1.21,1.21,0,0,0,10,68.24Z" style="fill:#ba0c2f"/><path d="M41.13,64.39a20.12,20.12,0,0,0-4.89,8.92,5.4,5.4,0,0,0-.12.74c-.64,1-1.43,1.82-2,1.85s-.64-.79-.15-1.88,1.43-2.47,1.85-3.34a2.1,2.1,0,0,0,0-2.15c-.13-.17-.29-.13-.46.12a13.2,13.2,0,0,0-.7,1.18,1.18,1.18,0,0,0-1.18-1.39c-1,0-2.49.87-4.06,3.15a5.91,5.91,0,0,0-1,2.31c-.64,1-1.34,1.91-2,1.92s-1-.87-.42-2,1.43-2.24,1.78-3.11.23-2.11-.47-2.13-1.93.89-2.86,1.8c.25-.85-.09-1.88-.75-1.9s-2.15,1.12-3,2.11a2.41,2.41,0,0,0,0-2.07c-.12-.19-.27-.21-.41,0a32.34,32.34,0,0,0-3,5.76,2.23,2.23,0,0,0-.09.32c-.53.7-1.08,1.21-1.57,1.23-.7,0-.82-.87-.31-2s1.39-2.44,1.79-3.29a1.4,1.4,0,0,0-.75-2c-.64-.09-1.95,1-2.82,1.9a2.31,2.31,0,0,0-.06-1.84c-.12-.19-.27-.21-.41,0A31.6,31.6,0,0,0,10,74.29c-.05.18-.09.33-.12.48A2.46,2.46,0,0,1,8.3,75.84c-.62,0-.66-.71-.2-1.84.41-1,1.22-2.28,1.63-3.13a2,2,0,0,0,0-2.11c-.16-.17-.29-.11-.47.12a24.16,24.16,0,0,0-2.47,4.7c-.54,1.58-.17,2.82,1.29,2.82a3,3,0,0,0,1.76-.65,1.37,1.37,0,0,0,.31.54c.18.17.29.09.37-.08a19.06,19.06,0,0,1,2.82-4.91c1.24-1.36,2.36-1.9,2.56-1.82s-1.36,2.2-2,4.1c-.56,1.68-.17,2.88,1.47,2.88a2.92,2.92,0,0,0,1.75-.7,1.17,1.17,0,0,0,.34.55c.18.15.29.07.37-.1a17.14,17.14,0,0,1,2.84-4.85c1.24-1.36,2.19-1.88,2.42-1.78.39.13-1.7,2.8-2.34,4.41-.56,1.39-.29,2.14,0,2.43.17.19.33.14.44-.1a16.7,16.7,0,0,1,3.37-5.27c1.25-1.26,1.91-1.47,2.07-1.42s-1.44,2.27-2.15,3.87-.1,2.92,1.59,2.92a3.36,3.36,0,0,0,2.33-1.23A1.48,1.48,0,0,0,30,76.38a3.37,3.37,0,0,0,2.42-1.51A1.5,1.5,0,0,0,34,76.46a3.05,3.05,0,0,0,2.25-1.25,1.56,1.56,0,0,0,1.63,1.15,4.25,4.25,0,0,0,3.23-2.14,1.78,1.78,0,0,0,.19-1.2c-.07-.27-.29-.25-.42,0-.75,1.49-2.11,2.88-3,2.8s-.65-1.68.12-3.58a11.17,11.17,0,0,0,4.49-5.82A2,2,0,0,0,42,64.3C41.69,64.05,41.42,64.09,41.13,64.39Zm-11,11.35c-.76,0-.51-1.72.52-3.38s2.47-3,3.09-2.92.39,1.26-.83,3.38C32,74.53,31,75.76,30.17,75.74Zm8.1-4.33a8.77,8.77,0,0,1,.46-.92c1.34-2.48,2.77-4.63,3-4.47S40.92,69.27,38.27,71.41Z" style="fill:#ba0c2f"/><path d="M55.73,68.53a1.16,1.16,0,0,0,.13-1.29c-.25-.53-.81-.76-1.12-.43a1.21,1.21,0,0,0-.1,1.43A.71.71,0,0,0,55.73,68.53Z" style="fill:#ba0c2f"/><path d="M62.71,73.19C62,74.55,61,75.82,60.23,75.86s-.81-.87-.31-2,1.4-2.44,1.8-3.29a1.4,1.4,0,0,0-.75-2c-.64-.09-2,1-2.83,1.9a2.27,2.27,0,0,0,0-1.84c-.12-.19-.27-.21-.41,0a30.38,30.38,0,0,0-3.09,5.7,2.59,2.59,0,0,0-.12.48,2.48,2.48,0,0,1-1.57,1.07c-.61,0-.65-.71-.19-1.84.41-1,1.22-2.28,1.63-3.13a2,2,0,0,0,0-2.11c-.15-.17-.29-.11-.46.12a23.63,23.63,0,0,0-2.47,4.7,4.8,4.8,0,0,0-.18.67c-.57.85-1.27,1.56-1.84,1.59s-.81-.87-.32-2,1.37-2.42,1.79-3.27a1.36,1.36,0,0,0-.75-2,4.08,4.08,0,0,0-2.32,1.36c.83-1.3,1.86-2.87,2.32-3.64a3.15,3.15,0,0,0,.54-2.75c-.1-.23-.29-.25-.46,0a67.74,67.74,0,0,0-6.27,10.7c-.4,1.16-.23,1.7.08,2,.12.13.25.09.33-.08a25.39,25.39,0,0,1,1.87-3.67c1.13-1.84,3.23-3.16,3.5-3s-1.37,2.18-2,4.06c-.58,1.68-.17,2.86,1.45,2.86a3.08,3.08,0,0,0,2.1-1,1.36,1.36,0,0,0,1.46,1,3,3,0,0,0,1.76-.65,1.26,1.26,0,0,0,.31.54c.17.17.29.09.37-.08A19.06,19.06,0,0,1,58,71.3c1.24-1.36,2.36-1.9,2.55-1.82.35.15-1.35,2.2-2,4.1-.56,1.68-.17,2.88,1.47,2.88a3.61,3.61,0,0,0,2.86-2.07A1.45,1.45,0,0,0,63,73.17C62.94,73,62.8,73,62.71,73.19Z" style="fill:#ba0c2f"/><path d="M64.52,74.6a1,1,0,0,0-1.1.68c-.21.46-.09,1,.29,1.16a1,1,0,0,0,1.1-.68C65,75.24,64.91,74.74,64.52,74.6Z" style="fill:#ba0c2f"/><path d="M77.85,72a38.25,38.25,0,0,1,1.41-5.62,1.91,1.91,0,0,0,0-1.41,2.56,2.56,0,0,0-.45-.8c-.19-.27-.38-.27-.69,0-2.05,1.69-4.74,5.51-6.25,8.14q-.47,0-.87-.09c-.29,0-.33,0-.23.29a1.37,1.37,0,0,0,.64.65,10.05,10.05,0,0,0-.52,1.11c-.41,1.08-.33,1.66-.1,2a.19.19,0,0,0,.35,0,28.36,28.36,0,0,1,1.47-2.78c.91,0,2.47-.22,3.84-.31,0,.58-.07,1.08-.07,1.47,0,1.1.33,1.58.71,1.76.18.07.29,0,.29-.18,0-1,.16-2.09.29-3.09a5.42,5.42,0,0,1,.83.11c.18.06.25,0,.22-.17A1.21,1.21,0,0,0,77.85,72Zm-1.24-.09c-.91,0-2.09.23-3.27.33A51.19,51.19,0,0,1,78,65.94,30,30,0,0,0,76.61,71.9Z" style="fill:#ba0c2f"/><path d="M99.33,73a5,5,0,0,1-2.59,2.69,2.43,2.43,0,0,0,.87-2c0-1.34-.31-2.85-.18-4.63.08-.13.14-.25.22-.36.25-.45.34-.66.15-.85s-.62-.1-1,.29a2.07,2.07,0,0,0-.7,1.49,39.17,39.17,0,0,1-2.22,3.32c0-.15,0-.31,0-.46,0-.31-.18-.39-.41-.2a2.06,2.06,0,0,0-.51,1.92,4.06,4.06,0,0,1-3,1.66c-1-.06-1.49-1.28-.87-3,1.36,1.1,2.65.59,3.6-.57.81-1,1-2.16.62-2.62a3.59,3.59,0,0,0-1.14-1c-1-.56-2.94.44-4.2,2.94a4.94,4.94,0,0,0-.57,2.31c-.77,1.13-1.79,2-2.54,2s-.66-1.68.11-3.58a11.12,11.12,0,0,0,4.49-5.82,2,2,0,0,0-.44-2.12c-.27-.25-.55-.21-.84.09a20.22,20.22,0,0,0-4.89,8.92c0,.17-.06.33-.08.48-.77,1.16-1.82,2.1-2.59,2s-.65-1.68.12-3.58a11.17,11.17,0,0,0,4.49-5.82,2,2,0,0,0-.45-2.12c-.27-.25-.54-.21-.83.09A20.12,20.12,0,0,0,79,73.31c-.45,2.09.27,3,1.6,3a3.71,3.71,0,0,0,2.57-1.27,1.58,1.58,0,0,0,1.67,1.27,3.88,3.88,0,0,0,2.71-1.42,2.37,2.37,0,0,0,2.41,1.48A4.81,4.81,0,0,0,93.15,75,2.86,2.86,0,0,0,96,76.42a4.06,4.06,0,0,0,3.42-2.13A1.72,1.72,0,0,0,99.69,73,.19.19,0,0,0,99.33,73Zm-10-1c.91-1.84,2.52-3,2.92-2.67s-.15,1.22-.77,2-1.36,1.57-2.3,1Q89.22,72.23,89.31,72.05Zm-3.63-1.56C87,68,88.44,65.86,88.69,66s-.83,3.25-3.48,5.39A8.86,8.86,0,0,1,85.68,70.49Zm-4.24,0c1.34-2.48,2.77-4.63,3-4.47s-.83,3.25-3.48,5.39A8.77,8.77,0,0,1,81.44,70.49ZM95.5,75.71c-.64.19-1.2-.6-1.49-1.72a32.91,32.91,0,0,0,2-3.14C96.1,72.4,96.39,75.44,95.5,75.71Z" style="fill:#ba0c2f"/><path d="M120.81,68.53a1.15,1.15,0,0,0,.13-1.29c-.25-.53-.81-.76-1.12-.43a1.2,1.2,0,0,0-.09,1.43C120,68.74,120.56,68.8,120.81,68.53Z" style="fill:#ba0c2f"/><path d="M127.79,73.19c-.74,1.36-1.68,2.63-2.48,2.67s-.81-.87-.31-2,1.4-2.44,1.8-3.29a1.4,1.4,0,0,0-.75-2c-.64-.09-2,1-2.82,1.9a2.31,2.31,0,0,0-.06-1.84c-.12-.19-.27-.21-.41,0a30.38,30.38,0,0,0-3.09,5.7,3.73,3.73,0,0,0-.12.48A2.46,2.46,0,0,1,118,75.84c-.62,0-.66-.71-.2-1.84.41-1,1.22-2.28,1.63-3.13a2,2,0,0,0,0-2.11c-.16-.17-.29-.11-.47.12a24.16,24.16,0,0,0-2.47,4.7,4.29,4.29,0,0,0-.23,1c-.53.81-1.13,1.37-1.65,1.35s-.79-.78-.48-1.78A10.26,10.26,0,0,1,116.26,71c.57-.64.1-1.49-.27-1.9-.13-.15-.29-.11-.52,0a4.49,4.49,0,0,1-2,.89c.48-1.22.64-2.34,0-2.32s-2.4,2.3-1.3,3c-.71,1-2,2.84-2.45,3.69a3.22,3.22,0,0,0-.29.71,2.1,2.1,0,0,1-1.26.8c-.66,0-.64-.76-.11-1.88,1-2,2.82-5.24,3.75-6.9.81-1.45.87-2.28.6-2.92-.1-.25-.27-.27-.47,0-.69,1-2.16,3.62-3.21,5.61a1.15,1.15,0,0,0-1.16-1.32c-1,0-2.51.87-4,3.12s-1.24,4.77.56,4.77a3.41,3.41,0,0,0,2.4-1.49,1.46,1.46,0,0,0,1.57,1.55,2.31,2.31,0,0,0,1.3-.39,1.49,1.49,0,0,0,.4.8c.17.17.29.07.33-.1.36-1.76,2.22-4.51,3-5.86a4.22,4.22,0,0,0,2.27-.73A11.76,11.76,0,0,0,113,73.69c-.49,1.45.07,2.73,1.47,2.79a2.66,2.66,0,0,0,1.9-.85,1.38,1.38,0,0,0,1.38.77,3,3,0,0,0,1.76-.65,1.26,1.26,0,0,0,.31.54c.18.17.29.09.37-.08a19.06,19.06,0,0,1,2.82-4.91c1.24-1.36,2.36-1.9,2.55-1.82.35.15-1.35,2.2-2,4.1-.56,1.68-.17,2.88,1.47,2.88a3.61,3.61,0,0,0,2.86-2.07,1.45,1.45,0,0,0,.18-1.22C128,73,127.89,73,127.79,73.19Zm-23.44,2.55c-.75,0-.54-1.7.51-3.36s2.47-2.92,3.07-2.9.27,1.24-.85,3.38C106.17,74.62,105.13,75.76,104.35,75.74Z" style="fill:#ba0c2f"/><path d="M129.61,74.6a1,1,0,0,0-1.11.68c-.21.46-.09,1,.29,1.16a1,1,0,0,0,1.11-.68C130.11,75.24,130,74.74,129.61,74.6Z" style="fill:#ba0c2f"/><path d="M130,.9s.17-.89-.72-.89H117.76A1.09,1.09,0,0,0,116.7.9l-9.51,51.35s-.17.89.72.89h11.47a1.08,1.08,0,0,0,1.05-.89Z" style="fill:#003a70"/><path d="M60.67,28.13H44.87c1.32-4.05,4.73-8.33,10.3-8.33,4.72,0,5.93,3.8,5.5,8.33m10.69.32C72.58,15.67,65.75,10.09,56,10.09c-16.58,0-23.74,15-24.67,24.83-1,10.59,4.87,19.25,17.31,19.25a44.44,44.44,0,0,0,12.51-2.12,1.22,1.22,0,0,0,.87-.83h0l2.08-8.16h0a.72.72,0,0,0-.73-.88,1,1,0,0,0-.34.06h0a28.45,28.45,0,0,1-10.47,2.22c-7.86,0-9.52-3.55-9.23-8.08H68.89a1.11,1.11,0,0,0,1-.79h0a55.16,55.16,0,0,0,1.46-7.13m24.75,6c-1,5.67-4.29,9.95-9.9,9.95a4.37,4.37,0,0,1-4.44-4.2c0-3.72,4.59-6.23,10.85-6a18.54,18.54,0,0,1,3.49.24m9.06,17.88c1.49-12.29,4.69-21.5,4.69-28C109.86,14,102.43,10,93.41,10A37.45,37.45,0,0,0,80,12.26h0a.9.9,0,0,0-.58.72h0l-1.06,8.55h0a.72.72,0,0,0,.73.89.8.8,0,0,0,.34-.07h0a21.55,21.55,0,0,1,11-2.63c4.3,0,7,2.43,7,5.42a6.49,6.49,0,0,1-.15,1.7c-1.82-.16-4.44-.4-7-.4-11.58,0-20.89,5.09-20.89,15.45,0,8.16,4.52,12.21,12.67,12.21,5.09,0,10-2,12.73-6.88v-.16l.15.16-.49,5h0a.89.89,0,0,0,.86.89h9a.88.88,0,0,0,.88-.81Z" style="fill:#003a70"/><path d="M36.86,10v0a.42.42,0,0,0-.39-.52h0C34.23,9.47,26,10.26,23,20.1l1.7-8.5h0a1.09,1.09,0,0,0,0-.18.89.89,0,0,0-.89-.89H12.6a.88.88,0,0,0-.87.73h0l-7.4,40.8v.06h0c0,.05,0,.09,0,.13a.89.89,0,0,0,.89.89H16.88a.9.9,0,0,0,.86-.68h0l4.67-22s3.19-10,11.14-8.52h.08a1.12,1.12,0,0,0,1-.84h0L36.87,10Z" style="fill:#003a70"/></svg>